Jump_normalized_Motion_pl03
version=1
nRows=18
nColumns=43
inDegrees=yes
endheader
time		pelvis_tilt		pelvis_list		pelvis_rotation		pelvis_tx		pelvis_ty		pelvis_tz		hip_flexion_r		hip_adduction_r		hip_rotation_r		knee_angle_r		ankle_angle_r		subtalar_angle_r		mtp_angle_r		hip_flexion_l		hip_adduction_l		hip_rotation_l		knee_angle_l		ankle_angle_l		subtalar_angle_l		mtp_angle_l		lumbar_extension		lumbar_bending		lumbar_rotation		neck_flexion		neck_lateral_bending		neck_rotation		arm_flex_r		arm_add_r		arm_rot_r		elbow_flex_r		pro_sup_r		wrist_flex_r		wrist_dev_r		hand_finger_flex_r		arm_flex_l		arm_add_l		arm_rot_l		elbow_flex_l		pro_sup_l		wrist_flex_l		wrist_dev_l		hand_finger_flex_l		
2.530000		3.005054		-24.979510		92.102401		-0.021650		1.655874		1.512413		80.910124		-3.573865		11.190470		-133.572165		-0.748288		13.749545		32.784367		71.891564		-12.087391		9.236054		-132.766528		31.300542		13.675196		13.608377		-35.797221		-1.588348		0.434171		31.432619		9.531962		-2.319774		111.125265		-12.285683		24.854518		56.611029		95.081893		0.326939		-2.560228		-20.299076		123.446989		-4.581361		29.510062		48.390011		105.694714		-10.150396		-9.790062		-4.751465		
2.532576		3.088787		-25.020199		92.300352		-0.021961		1.656645		1.508075		80.645606		-3.682176		11.000304		-133.438558		-1.672988		14.029996		32.774747		71.366217		-12.040124		9.264528		-132.536985		31.194927		13.777911		13.746354		-35.444448		-1.456919		0.270690		31.192713		9.536371		-2.408906		111.110677		-12.304604		24.923338		56.696413		95.100937		0.428868		-2.644698		-20.448963		123.423387		-4.572239		29.438778		48.470106		105.863724		-10.079165		-9.854008		-4.771948		
2.535152		3.188330		-24.988732		92.449697		-0.022273		1.657360		1.503715		80.338403		-3.755260		10.834226		-133.299857		-2.559951		14.093530		32.764528		70.752542		-12.041549		9.330696		-132.332732		31.041890		13.861940		13.902654		-35.125233		-1.308286		0.220566		30.708615		9.607838		-2.422116		111.176177		-12.246693		24.997090		56.583063		95.165349		0.509349		-2.680241		-20.632890		123.369907		-4.520527		29.250161		48.451715		106.074976		-10.064904		-9.892143		-4.816303		
2.537727		3.276060		-25.028155		92.536434		-0.022536		1.657737		1.499273		80.220488		-3.789724		10.725425		-133.178151		-2.972604		14.090658		32.761476		70.180105		-12.057124		9.343088		-132.108392		30.920846		13.900161		13.948305		-34.729459		-1.214523		0.192292		30.497368		9.637790		-2.407053		111.208256		-12.183095		25.062936		56.538285		95.213571		0.543922		-2.685734		-20.687924		123.373018		-4.508362		29.155503		48.400784		106.156873		-10.088189		-9.893679		-4.845671		
2.540303		3.424827		-24.789533		92.627597		-0.022853		1.658936		1.494809		79.616353		-3.769240		10.454174		-132.967288		-4.515364		13.952037		32.749304		69.410304		-12.169903		9.440770		-131.964622		30.670370		14.000003		14.187256		-34.613642		-1.027067		0.155677		29.462088		9.733042		-2.265734		111.301448		-12.104962		25.212298		56.255298		95.522435		0.627259		-2.741399		-20.946233		123.175902		-4.404912		28.762004		48.366162		106.603223		-10.261590		-9.992230		-5.032268		
2.542879		3.835315		-24.353968		92.558911		-0.022780		1.660119		1.489966		78.865474		-3.391373		10.046538		-132.694047		-5.400045		13.189407		32.723114		68.399851		-12.698982		9.727868		-131.815112		30.372151		14.105121		14.828387		-34.636280		-0.696510		0.542168		28.540162		9.606294		-1.798724		111.529033		-11.847211		25.434926		55.579229		96.390058		0.800762		-3.047790		-21.571041		122.883562		-4.238396		28.029767		48.121046		107.880529		-10.588534		-10.213468		-5.531879		
2.545455		3.888516		-24.307062		92.712585		-0.023030		1.660810		1.485372		78.586440		-3.515938		9.773784		-132.525392		-6.506305		13.336848		32.717387		67.780601		-12.675045		9.746861		-131.598824		30.211650		14.193211		14.969000		-34.347443		-0.608216		0.334551		28.191161		9.623120		-1.867550		111.462018		-11.886762		25.533349		55.646377		96.606494		0.906013		-3.117741		-21.663845		122.786598		-4.262140		27.900081		48.155754		108.146719		-10.648247		-10.269662		-5.663607		
2.548030		3.959436		-24.159800		92.799446		-0.023447		1.661644		1.480749		78.217220		-3.595272		9.572947		-132.307058		-7.729079		13.126735		32.711527		67.046078		-12.680511		9.785545		-131.370176		29.936479		14.282695		15.148102		-34.141065		-0.485712		0.298780		27.563550		9.683877		-1.844752		111.471417		-11.900379		25.641648		55.540615		96.970317		0.981975		-3.134619		-21.787193		122.594557		-4.195520		27.626682		48.122439		108.524820		-10.890015		-10.310004		-5.946194		
2.550606		4.065301		-23.974419		92.820988		-0.023866		1.662451		1.476055		77.845643		-3.581043		9.390642		-132.056487		-8.862298		12.735296		32.706305		66.269794		-12.766575		9.829684		-131.123361		29.618556		14.356885		15.352758		-33.979288		-0.340582		0.347433		26.911757		9.718932		-1.768730		111.500998		-11.880676		25.735602		55.425900		97.413072		1.034465		-3.171108		-21.925027		122.400772		-4.115276		27.286801		48.038592		108.987839		-11.218877		-10.352952		-6.317323		
2.553182		4.115369		-23.868302		92.877334		-0.024080		1.663061		1.471180		77.598886		-3.615461		9.183180		-131.819409		-9.678684		12.506143		32.704800		65.571539		-12.807165		9.834765		-130.922510		29.369396		14.411090		15.436817		-33.693146		-0.281555		0.283860		26.573668		9.716684		-1.745973		111.373750		-11.890760		25.824733		55.371953		97.621521		1.061646		-3.186295		-21.978218		122.174352		-4.080392		27.141819		47.959477		109.212089		-11.391863		-10.378850		-6.505564		
2.555758		4.370747		-23.355164		92.831326		-0.024066		1.664554		1.466201		76.787590		-3.411730		8.772019		-131.469633		-11.396434		11.766215		32.702558		64.490136		-13.167708		9.984297		-130.730387		28.878229		14.533518		16.046243		-33.898374		-0.096447		0.558551		25.679139		9.684400		-1.662331		111.341331		-11.877898		25.824918		55.260646		98.638625		1.120029		-3.489778		-22.308045		121.858495		-3.911340		26.525534		47.897644		110.565053		-11.841232		-10.676235		-7.344582		
2.558333		4.821630		-22.701297		92.725029		-0.023743		1.666180		1.460807		75.833331		-2.942252		8.204486		-131.046697		-12.494859		10.867886		32.701952		63.246244		-13.797300		10.265962		-130.512337		28.416365		14.680634		17.187746		-34.223049		0.193149		1.056567		25.147166		9.535157		-1.572024		111.299747		-11.792826		25.758506		54.995267		100.263859		1.302609		-4.039398		-22.865120		121.522568		-3.671103		25.710477		47.654763		112.902916		-12.114207		-11.137489		-8.587637		
2.560909		4.756954		-22.555619		92.892511		-0.024207		1.666885		1.455900		75.562154		-3.196055		8.102694		-130.779547		-13.412589		10.455085		32.701879		62.555276		-13.565691		10.261968		-130.279657		27.954660		14.812597		17.323173		-33.977053		0.222376		0.828183		24.492141		9.615084		-1.619457		111.068358		-11.848483		25.757586		55.007188		100.335658		1.379783		-4.038590		-22.935317		121.114340		-3.598632		25.409793		47.760423		112.998490		-12.153680		-11.181592		-8.727100		
2.563485		4.745328		-22.350942		92.952229		-0.024489		1.667630		1.450874		75.240448		-3.301191		7.989515		-130.495206		-14.246056		9.910164		32.701917		61.798426		-13.496937		10.262394		-130.055793		27.418738		14.903784		17.459407		-33.784330		0.247629		0.727186		23.791289		9.664857		-1.605347		110.796472		-11.867324		25.755072		55.035642		100.423627		1.400465		-4.095305		-23.041264		120.667163		-3.547088		25.076683		47.831464		113.144994		-12.281981		-11.275332		-8.903078		
2.566061		4.753123		-22.057291		92.939652		-0.024685		1.668573		1.445859		74.839715		-3.368354		7.873945		-130.190927		-14.980422		9.183634		32.701606		60.957692		-13.519994		10.296714		-129.819181		26.754894		14.984678		17.640187		-33.699648		0.262493		0.737484		22.912802		9.722081		-1.559875		110.521870		-11.888236		25.736877		55.074176		100.552589		1.381201		-4.222648		-23.203303		120.141291		-3.506133		24.648990		47.939413		113.371970		-12.489319		-11.451767		-9.136591		
2.568636		4.805715		-21.741929		92.892603		-0.024791		1.669466		1.440678		74.422194		-3.333336		7.724210		-129.880550		-15.394776		8.479853		32.700069		60.088780		-13.591307		10.323049		-129.582415		26.078579		15.045447		17.863731		-33.628422		0.302591		0.805651		22.090651		9.755304		-1.492650		110.253034		-11.906635		25.761029		55.083088		100.725820		1.346633		-4.410316		-23.402235		119.615974		-3.465990		24.219129		48.014875		113.669857		-12.711441		-11.675584		-9.388948		
2.571212		4.846223		-21.536586		92.852533		-0.024963		1.670034		1.435623		74.175062		-3.340983		7.540163		-129.610599		-15.567359		8.056513		32.698236		59.361989		-13.603015		10.348983		-129.377154		25.617432		15.085600		18.014057		-33.451403		0.339597		0.839412		21.623793		9.765642		-1.451453		110.022875		-11.929456		25.834450		55.066766		100.852826		1.337746		-4.541575		-23.531191		119.198731		-3.477913		23.970207		47.997701		113.873804		-12.844535		-11.814878		-9.546610		
2.573788		4.840446		-21.282162		92.847348		-0.025108		1.670679		1.430481		73.854752		-3.431917		7.343261		-129.343275		-15.513872		7.558451		32.694463		58.610898		-13.562088		10.387538		-129.179953		25.000732		15.143980		18.110712		-33.312679		0.341910		0.820842		20.936433		9.789119		-1.426922		109.721256		-12.040418		25.953123		55.137364		100.973910		1.325576		-4.697859		-23.633148		118.648300		-3.515357		23.711339		48.138057		113.997240		-13.052733		-11.990951		-9.702718		
